<mxfile host="Electron" agent="Mozilla/5.0 (Windows NT 10.0; Win64; x64) AppleWebKit/537.36 (KHTML, like Gecko) draw.io/27.0.5 Chrome/134.0.6998.205 Electron/35.3.0 Safari/537.36" version="27.0.5">
  <diagram name="Page-1" id="9yhQY-9SpDFkv_uubFrm">
    <mxGraphModel dx="1281" dy="634" grid="1" gridSize="10" guides="1" tooltips="1" connect="1" arrows="1" fold="1" page="1" pageScale="1" pageWidth="827" pageHeight="1169" math="0" shadow="0">
      <root>
        <mxCell id="0" />
        <mxCell id="1" parent="0" />
        <mxCell id="Z2kb0646tjZ8S2vb95UB-1" value="&lt;&lt;interface&gt;&gt;&#xa;Handler" style="swimlane;fontStyle=1;align=center;verticalAlign=top;childLayout=stackLayout;horizontal=1;startSize=61.33333333333333;horizontalStack=0;resizeParent=1;resizeParentMax=0;resizeLast=0;collapsible=0;marginBottom=0;" vertex="1" parent="1">
          <mxGeometry x="865" y="238" width="309" height="192.33333333333331" as="geometry" />
        </mxCell>
        <mxCell id="Z2kb0646tjZ8S2vb95UB-2" value="+nextHandler: Handler" style="text;strokeColor=none;fillColor=none;align=left;verticalAlign=top;spacingLeft=4;spacingRight=4;overflow=hidden;rotatable=0;points=[[0,0.5],[1,0.5]];portConstraint=eastwest;" vertex="1" parent="Z2kb0646tjZ8S2vb95UB-1">
          <mxGeometry y="61.33333333333333" width="309" height="41" as="geometry" />
        </mxCell>
        <mxCell id="Z2kb0646tjZ8S2vb95UB-3" style="line;strokeWidth=1;fillColor=none;align=left;verticalAlign=middle;spacingTop=-1;spacingLeft=3;spacingRight=3;rotatable=0;labelPosition=right;points=[];portConstraint=eastwest;strokeColor=inherit;" vertex="1" parent="Z2kb0646tjZ8S2vb95UB-1">
          <mxGeometry y="102.33333333333333" width="309" height="8" as="geometry" />
        </mxCell>
        <mxCell id="Z2kb0646tjZ8S2vb95UB-4" value="+setNext(Handler) : : Handler" style="text;strokeColor=none;fillColor=none;align=left;verticalAlign=top;spacingLeft=4;spacingRight=4;overflow=hidden;rotatable=0;points=[[0,0.5],[1,0.5]];portConstraint=eastwest;" vertex="1" parent="Z2kb0646tjZ8S2vb95UB-1">
          <mxGeometry y="110.33333333333333" width="309" height="41" as="geometry" />
        </mxCell>
        <mxCell id="Z2kb0646tjZ8S2vb95UB-5" value="+handle(request) : : RouteOptions" style="text;strokeColor=none;fillColor=none;align=left;verticalAlign=top;spacingLeft=4;spacingRight=4;overflow=hidden;rotatable=0;points=[[0,0.5],[1,0.5]];portConstraint=eastwest;" vertex="1" parent="Z2kb0646tjZ8S2vb95UB-1">
          <mxGeometry y="151.33333333333331" width="309" height="41" as="geometry" />
        </mxCell>
        <mxCell id="Z2kb0646tjZ8S2vb95UB-6" value="StandardRouteHandler" style="swimlane;fontStyle=1;align=center;verticalAlign=top;childLayout=stackLayout;horizontal=1;startSize=47.2;horizontalStack=0;resizeParent=1;resizeParentMax=0;resizeLast=0;collapsible=0;marginBottom=0;" vertex="1" parent="1">
          <mxGeometry x="20" y="480" width="353" height="102.2" as="geometry" />
        </mxCell>
        <mxCell id="Z2kb0646tjZ8S2vb95UB-7" style="line;strokeWidth=1;fillColor=none;align=left;verticalAlign=middle;spacingTop=-1;spacingLeft=3;spacingRight=3;rotatable=0;labelPosition=right;points=[];portConstraint=eastwest;strokeColor=inherit;" vertex="1" parent="Z2kb0646tjZ8S2vb95UB-6">
          <mxGeometry y="47.2" width="353" height="8" as="geometry" />
        </mxCell>
        <mxCell id="Z2kb0646tjZ8S2vb95UB-8" value="+handle(request) : : RouteOptions" style="text;strokeColor=none;fillColor=none;align=left;verticalAlign=top;spacingLeft=4;spacingRight=4;overflow=hidden;rotatable=0;points=[[0,0.5],[1,0.5]];portConstraint=eastwest;" vertex="1" parent="Z2kb0646tjZ8S2vb95UB-6">
          <mxGeometry y="55.2" width="353" height="47" as="geometry" />
        </mxCell>
        <mxCell id="Z2kb0646tjZ8S2vb95UB-9" value="AccessibilityRouteHandler" style="swimlane;fontStyle=1;align=center;verticalAlign=top;childLayout=stackLayout;horizontal=1;startSize=47.2;horizontalStack=0;resizeParent=1;resizeParentMax=0;resizeLast=0;collapsible=0;marginBottom=0;" vertex="1" parent="1">
          <mxGeometry x="423" y="480" width="366" height="102.2" as="geometry" />
        </mxCell>
        <mxCell id="Z2kb0646tjZ8S2vb95UB-10" style="line;strokeWidth=1;fillColor=none;align=left;verticalAlign=middle;spacingTop=-1;spacingLeft=3;spacingRight=3;rotatable=0;labelPosition=right;points=[];portConstraint=eastwest;strokeColor=inherit;" vertex="1" parent="Z2kb0646tjZ8S2vb95UB-9">
          <mxGeometry y="47.2" width="366" height="8" as="geometry" />
        </mxCell>
        <mxCell id="Z2kb0646tjZ8S2vb95UB-11" value="+handle(request) : : RouteOptions" style="text;strokeColor=none;fillColor=none;align=left;verticalAlign=top;spacingLeft=4;spacingRight=4;overflow=hidden;rotatable=0;points=[[0,0.5],[1,0.5]];portConstraint=eastwest;" vertex="1" parent="Z2kb0646tjZ8S2vb95UB-9">
          <mxGeometry y="55.2" width="366" height="47" as="geometry" />
        </mxCell>
        <mxCell id="Z2kb0646tjZ8S2vb95UB-12" value="MultimodalRouteHandler" style="swimlane;fontStyle=1;align=center;verticalAlign=top;childLayout=stackLayout;horizontal=1;startSize=47.2;horizontalStack=0;resizeParent=1;resizeParentMax=0;resizeLast=0;collapsible=0;marginBottom=0;" vertex="1" parent="1">
          <mxGeometry x="839" y="480" width="361" height="102.2" as="geometry" />
        </mxCell>
        <mxCell id="Z2kb0646tjZ8S2vb95UB-13" style="line;strokeWidth=1;fillColor=none;align=left;verticalAlign=middle;spacingTop=-1;spacingLeft=3;spacingRight=3;rotatable=0;labelPosition=right;points=[];portConstraint=eastwest;strokeColor=inherit;" vertex="1" parent="Z2kb0646tjZ8S2vb95UB-12">
          <mxGeometry y="47.2" width="361" height="8" as="geometry" />
        </mxCell>
        <mxCell id="Z2kb0646tjZ8S2vb95UB-14" value="+handle(request) : : RouteOptions" style="text;strokeColor=none;fillColor=none;align=left;verticalAlign=top;spacingLeft=4;spacingRight=4;overflow=hidden;rotatable=0;points=[[0,0.5],[1,0.5]];portConstraint=eastwest;" vertex="1" parent="Z2kb0646tjZ8S2vb95UB-12">
          <mxGeometry y="55.2" width="361" height="47" as="geometry" />
        </mxCell>
        <mxCell id="Z2kb0646tjZ8S2vb95UB-15" value="System" style="swimlane;fontStyle=1;align=center;verticalAlign=top;childLayout=stackLayout;horizontal=1;startSize=40;horizontalStack=0;resizeParent=1;resizeParentMax=0;resizeLast=0;collapsible=0;marginBottom=0;" vertex="1" parent="1">
          <mxGeometry x="825" y="20" width="389" height="168" as="geometry" />
        </mxCell>
        <mxCell id="Z2kb0646tjZ8S2vb95UB-16" value="-routeHandlerChain: Handler" style="text;strokeColor=none;fillColor=none;align=left;verticalAlign=top;spacingLeft=4;spacingRight=4;overflow=hidden;rotatable=0;points=[[0,0.5],[1,0.5]];portConstraint=eastwest;" vertex="1" parent="Z2kb0646tjZ8S2vb95UB-15">
          <mxGeometry y="40" width="389" height="40" as="geometry" />
        </mxCell>
        <mxCell id="Z2kb0646tjZ8S2vb95UB-17" style="line;strokeWidth=1;fillColor=none;align=left;verticalAlign=middle;spacingTop=-1;spacingLeft=3;spacingRight=3;rotatable=0;labelPosition=right;points=[];portConstraint=eastwest;strokeColor=inherit;" vertex="1" parent="Z2kb0646tjZ8S2vb95UB-15">
          <mxGeometry y="80" width="389" height="8" as="geometry" />
        </mxCell>
        <mxCell id="Z2kb0646tjZ8S2vb95UB-18" value="+setupHandlerChain()" style="text;strokeColor=none;fillColor=none;align=left;verticalAlign=top;spacingLeft=4;spacingRight=4;overflow=hidden;rotatable=0;points=[[0,0.5],[1,0.5]];portConstraint=eastwest;" vertex="1" parent="Z2kb0646tjZ8S2vb95UB-15">
          <mxGeometry y="88" width="389" height="40" as="geometry" />
        </mxCell>
        <mxCell id="Z2kb0646tjZ8S2vb95UB-19" value="+requestRoutes(routeRequest) : : RouteOptions" style="text;strokeColor=none;fillColor=none;align=left;verticalAlign=top;spacingLeft=4;spacingRight=4;overflow=hidden;rotatable=0;points=[[0,0.5],[1,0.5]];portConstraint=eastwest;" vertex="1" parent="Z2kb0646tjZ8S2vb95UB-15">
          <mxGeometry y="128" width="389" height="40" as="geometry" />
        </mxCell>
        <mxCell id="Z2kb0646tjZ8S2vb95UB-20" value="" style="whiteSpace=wrap;strokeWidth=2;" vertex="1" parent="1">
          <mxGeometry x="1250" y="543" as="geometry" />
        </mxCell>
        <mxCell id="Z2kb0646tjZ8S2vb95UB-21" value="" style="whiteSpace=wrap;strokeWidth=2;" vertex="1" parent="1">
          <mxGeometry x="1269" y="678" as="geometry" />
        </mxCell>
        <mxCell id="Z2kb0646tjZ8S2vb95UB-22" value="" style="curved=1;dashed=1;startArrow=block;startSize=16;startFill=0;endArrow=none;exitX=0;exitY=0.62;entryX=0.5;entryY=0;rounded=0;" edge="1" parent="1" source="Z2kb0646tjZ8S2vb95UB-1" target="Z2kb0646tjZ8S2vb95UB-6">
          <mxGeometry relative="1" as="geometry">
            <Array as="points">
              <mxPoint x="196" y="455" />
            </Array>
          </mxGeometry>
        </mxCell>
        <mxCell id="Z2kb0646tjZ8S2vb95UB-23" value="" style="curved=1;dashed=1;startArrow=block;startSize=16;startFill=0;endArrow=none;exitX=0;exitY=0.74;entryX=0.5;entryY=0;rounded=0;" edge="1" parent="1" source="Z2kb0646tjZ8S2vb95UB-1" target="Z2kb0646tjZ8S2vb95UB-9">
          <mxGeometry relative="1" as="geometry">
            <Array as="points">
              <mxPoint x="606" y="455" />
            </Array>
          </mxGeometry>
        </mxCell>
        <mxCell id="Z2kb0646tjZ8S2vb95UB-24" value="" style="curved=1;dashed=1;startArrow=block;startSize=16;startFill=0;endArrow=none;exitX=0.5;exitY=1;entryX=0.5;entryY=0;rounded=0;" edge="1" parent="1" source="Z2kb0646tjZ8S2vb95UB-1" target="Z2kb0646tjZ8S2vb95UB-12">
          <mxGeometry relative="1" as="geometry">
            <Array as="points" />
          </mxGeometry>
        </mxCell>
        <mxCell id="Z2kb0646tjZ8S2vb95UB-25" value="" style="curved=1;startArrow=none;endArrow=none;exitX=1;exitY=0.92;entryX=-Infinity;entryY=-Infinity;rounded=0;" edge="1" parent="1" source="Z2kb0646tjZ8S2vb95UB-1" target="Z2kb0646tjZ8S2vb95UB-20">
          <mxGeometry relative="1" as="geometry">
            <Array as="points">
              <mxPoint x="1250" y="455" />
            </Array>
          </mxGeometry>
        </mxCell>
        <mxCell id="Z2kb0646tjZ8S2vb95UB-26" value="next" style="curved=1;startArrow=none;endArrow=none;exitX=-Infinity;exitY=Infinity;entryX=-Infinity;entryY=Infinity;rounded=0;" edge="1" parent="1" source="Z2kb0646tjZ8S2vb95UB-20" target="Z2kb0646tjZ8S2vb95UB-21">
          <mxGeometry relative="1" as="geometry">
            <Array as="points">
              <mxPoint x="1250" y="642" />
            </Array>
          </mxGeometry>
        </mxCell>
        <mxCell id="Z2kb0646tjZ8S2vb95UB-27" value="" style="curved=1;startArrow=none;endArrow=open;endSize=12;exitX=-Infinity;exitY=Infinity;entryX=1;entryY=0.86;rounded=0;" edge="1" parent="1" source="Z2kb0646tjZ8S2vb95UB-21" target="Z2kb0646tjZ8S2vb95UB-1">
          <mxGeometry relative="1" as="geometry">
            <Array as="points">
              <mxPoint x="1288" y="642" />
              <mxPoint x="1288" y="455" />
            </Array>
          </mxGeometry>
        </mxCell>
        <mxCell id="Z2kb0646tjZ8S2vb95UB-28" value="" style="curved=1;startArrow=none;endArrow=open;endSize=12;exitX=0.5;exitY=1;entryX=0.5;entryY=0;rounded=0;" edge="1" parent="1" source="Z2kb0646tjZ8S2vb95UB-15" target="Z2kb0646tjZ8S2vb95UB-1">
          <mxGeometry relative="1" as="geometry">
            <Array as="points" />
          </mxGeometry>
        </mxCell>
      </root>
    </mxGraphModel>
  </diagram>
</mxfile>
